<svg xmlns="http://www.w3.org/2000/svg" width="59.73" height="79.64" viewBox="0 0 59.73 79.64">
  <path id="Icon_awesome-prescription-bottle-alt" data-name="Icon awesome-prescription-bottle-alt" d="M56,0H3.733A3.744,3.744,0,0,0,0,3.733V11.2a3.744,3.744,0,0,0,3.733,3.733H56A3.744,3.744,0,0,0,59.73,11.2V3.733A3.744,3.744,0,0,0,56,0ZM4.978,74.663A4.992,4.992,0,0,0,9.955,79.64h39.82a4.992,4.992,0,0,0,4.978-4.978V19.91H4.978Zm9.955-28.621A1.248,1.248,0,0,1,16.177,44.8h8.711V36.087a1.248,1.248,0,0,1,1.244-1.244H33.6a1.248,1.248,0,0,1,1.244,1.244V44.8h8.711A1.248,1.248,0,0,1,44.8,46.042v7.466a1.248,1.248,0,0,1-1.244,1.244H34.843v8.711A1.248,1.248,0,0,1,33.6,64.708H26.132a1.248,1.248,0,0,1-1.244-1.244V54.753H16.177a1.248,1.248,0,0,1-1.244-1.244Z" fill="#fff"/>
</svg>
