<svg xmlns="http://www.w3.org/2000/svg" width="73.924" height="90.98" viewBox="0 0 73.924 90.98">
  <path id="Icon_awesome-running" data-name="Icon awesome-running" d="M48.335,17.059a8.53,8.53,0,1,0-8.53-8.53A8.53,8.53,0,0,0,48.335,17.059ZM20.2,56.415l-2.63,6.134H5.686a5.686,5.686,0,1,0,0,11.373H19.449a8.512,8.512,0,0,0,7.838-5.169l1.562-3.646-1.9-1.12A16.922,16.922,0,0,1,20.2,56.415ZM68.238,39.8H60.413l-4.631-9.463A17.051,17.051,0,0,0,44.8,21.289L32.173,17.532a16.987,16.987,0,0,0-14.365,3.046l-7.049,5.4a5.686,5.686,0,0,0,6.92,9.024l7.053-5.4a5.534,5.534,0,0,1,4.491-1.091l2.612.777L25.177,44.816A11.4,11.4,0,0,0,29.85,59.088L44.952,68,40.07,83.593a5.686,5.686,0,1,0,10.852,3.4l5.622-17.959A8.565,8.565,0,0,0,52.7,59.367L41.817,52.945l5.564-13.911,3.6,7.362a8.582,8.582,0,0,0,7.661,4.778h9.594a5.686,5.686,0,1,0,0-11.371Z" fill="#fff"/>
</svg>
