<svg xmlns="http://www.w3.org/2000/svg" width="38" height="42" viewBox="0 0 38 42">
  <path id="Icon_metro-fire" data-name="Icon metro-fire" d="M15.4,43.928c-2.917-5.825-1.364-9.162.878-12.306a19.163,19.163,0,0,0,3.088-6.852,7.8,7.8,0,0,1,1.158,6.173,15.127,15.127,0,0,0,3.538-11.667c7.707,5.168,11,16.359,6.562,24.653,23.609-12.819,5.873-32,2.785-34.16,1.029,2.161,1.224,5.818-.855,7.593C29.033,4.553,20.33,1.928,20.33,1.928c1.029,6.605-3.731,13.828-8.321,19.225a13.814,13.814,0,0,0-1.776-6.972C9.908,18.966,6.1,22.866,5.066,27.66,3.668,34.153,6.113,38.906,15.4,43.928Z" transform="translate(-4.701 -1.928)" fill="#0a57ae"/>
</svg>
