<svg xmlns="http://www.w3.org/2000/svg" width="46.761" height="88.797" viewBox="0 0 46.761 88.797">
  <g id="noun-blood-glucose-meter-16266" transform="translate(0 0)">
    <path id="Path_11" data-name="Path 11" d="M270.64,82.762h27.366V104.47H270.64Z" transform="translate(-260.941 -70.165)" fill="#fff"/>
    <path id="Path_12" data-name="Path 12" d="M251.486,8.835c-3.575-2.127-8.739-3.46-17.225-3.46-8.342,0-12.567,1.4-16.294,3.46-3.791,2.09-6.91,5.158-6.91,11.523V54.969c0,10.614,3.638,19.017,23.332,19.017,20.614,0,23.428-7.615,23.428-19.017V19.2c0-6.363-2.389-8.025-6.332-10.369ZM220.254,64.461a4.3,4.3,0,1,1,4.3-4.3A4.3,4.3,0,0,1,220.254,64.461Zm14.184,3.6a6.1,6.1,0,1,1,6.1-6.1A6.1,6.1,0,0,1,234.438,68.062Zm14.185-3.6a4.3,4.3,0,1,1,4.3-4.3A4.3,4.3,0,0,1,248.623,64.461Zm5.156-26.749c0,.118.013.237.013.357s-.008.238-.013.357v.054h0C253.452,45.433,244.922,51,234.439,51S215.423,45.431,215.1,38.48h-.015V22.656c0-7.008,8.664-12.687,19.354-12.687s19.352,5.68,19.352,12.687c0,.168-.013,15.056-.013,15.056Z" transform="translate(-211.057 -5.375)" fill="#fff"/>
    <path id="Path_13" data-name="Path 13" d="M336.07,436.03h6.065v18.7H336.07Z" transform="translate(-315.721 -365.93)" fill="#fff"/>
    <path id="Path_14" data-name="Path 14" d="M341.11,524.8h4.424v3.322H341.11Z" transform="translate(-319.941 -440.251)" fill="#fff"/>
    <path id="Path_15" data-name="Path 15" d="M352.29,524.8h.785v3.322h-.785Z" transform="translate(-329.301 -440.251)" fill="#fff"/>
  </g>
</svg>
