<svg xmlns="http://www.w3.org/2000/svg" width="70.862" height="70.861" viewBox="0 0 70.862 70.861">
  <path id="Icon_awesome-weight-hanging" data-name="Icon awesome-weight-hanging" d="M70.624,61.707,60.516,21.276a4.508,4.508,0,0,0-4.272-3.56H47.905a13.287,13.287,0,1,0-24.946,0H14.621a4.509,4.509,0,0,0-4.272,3.56L.238,61.707c-1.153,4.61,2.029,9.154,6.409,9.154H64.216C68.595,70.861,71.777,66.317,70.624,61.707ZM35.431,17.715a4.429,4.429,0,1,1,4.429-4.429A4.435,4.435,0,0,1,35.431,17.715Z" transform="translate(0 -0.001)" fill="#fff"/>
</svg>
